# xmcd
#
# Track frame offsets:
#	150
#	152862
#	188147
#
# Disc length: 3668 seconds
#
# Revision: 0
# Processed by: cddbd v1.5.2PL0 Copyright (c) Steve Scherf et al.
# Submitted via: dBpowerAMP V4.0
#
DISCID=1e0e5203
DTITLE=Hennie Korsten - Sereno
DYEAR=1900
DGENRE=Instrumental
TTITLE0=Sereno
TTITLE1=Sereno
TTITLE2=Sereno
EXTD=Brigit Geuijen  Sereno van Hennie Korsten\n
EXTT0=
EXTT1=
EXTT2=
PLAYORDER=
